PathFileType	4	(X/Y/Z)	/Users/visionmauri/Downloads/Videos/OAW12-top_Sports2D/OAW12-top_Sports2D_px_person00.trc
DataRate	CameraRate	NumFrames	NumMarkers	Units	OrigDataRate	OrigDataStartFrame	OrigNumFrames
25.0	25.0	11	22	m	25.0	648	1729
Frame#	Time	Hip			RHip			RKnee			RAnkle			RBigToe			RSmallToe			RHeel			LHip			LKnee			LAnkle			LBigToe			LSmallToe			LHeel			Neck			Head			Nose			RShoulder			RElbow			RWrist			LShoulder			LElbow			LWrist			
		X1	Y1	Z1	X2	Y2	Z2	X3	Y3	Z3	X4	Y4	Z4	X5	Y5	Z5	X6	Y6	Z6	X7	Y7	Z7	X8	Y8	Z8	X9	Y9	Z9	X10	Y10	Z10	X11	Y11	Z11	X12	Y12	Z12	X13	Y13	Z13	X14	Y14	Z14	X15	Y15	Z15	X16	Y16	Z16	X17	Y17	Z17	X18	Y18	Z18	X19	Y19	Z19	X20	Y20	Z20	X21	Y21	Z21	X22	Y22	Z22
648	25.935	522.7448034847124	567.8097897422807	0.0	548.0769992288587	564.8355074152122	0.0	543.4252811284382	660.2755374641946	0.0	543.9901322995609	739.2379169753517	0.0	538.2501133633514	747.7856796200705	0.0	555.2238851496803	750.5016650151177	0.0	540.6954833610347	757.6084260858079	0.0	497.62224585373406	564.2692422595981	0.0	504.4577144580669	669.2360227657484	0.0	509.77757605419214	759.6817511577556	0.0	517.1191644023912	781.2169984228107	0.0	499.51784759858793	782.8224684200933	0.0	509.2855578760365	779.8331624739044	0.0	524.1790724012288	428.69329014809455	0.0	527.0655508401605	362.598047478789	0.0	525.7825114228856	397.3883176714465	0.0	565.4573598331689	455.55527645268296	0.0	579.5717638428537	531.7306088260162	0.0	590.7736047243596	592.9171958613535	0.0	478.55586943907724	446.22530602833683	0.0	459.9107553884639	519.2088529867734	0.0	460.1006568866022	573.9353694950307	0.0
649	25.975023148148146	523.4721973861737	567.6791431674962	0.0	548.663062697957	565.2734056306821	0.0	543.0664208809563	657.3920437098478	0.0	541.9825532698381	735.0767061121844	0.0	535.0859561750973	743.3898496036472	0.0	553.1290933291083	744.7339829724108	0.0	538.6315397265748	753.224315826941	0.0	498.85400755893727	564.2656826430683	0.0	504.9828282782737	668.1070977158921	0.0	510.3831418657083	758.0505577487714	0.0	517.0740147257842	782.4165999374001	0.0	499.9216057291115	784.3758968303739	0.0	509.6842929055069	777.8381958366871	0.0	525.2898106992461	428.8890177448048	0.0	528.4254914757121	363.64446616894344	0.0	527.5343318805686	398.3288587693864	0.0	566.3691377690262	455.7160493121786	0.0	579.9235893613617	531.8769059529291	0.0	591.2722299070338	592.8024553647501	0.0	479.39906752435326	446.45599193104147	0.0	461.6981727452096	518.8365984821547	0.0	463.1121812818214	571.8188826262068	0.0
650	26.015046296296298	524.5009567325321	566.764955076723	0.0	549.7029811142543	565.2981934117084	0.0	542.0393587540541	655.6578725025488	0.0	539.7151098352792	732.8966808724031	0.0	532.0513089537709	742.5455270860939	0.0	550.4155530700516	743.4984981568125	0.0	536.469377758106	750.0414890880309	0.0	500.1130207537831	564.019422117451	0.0	505.73657917876824	666.4508823667379	0.0	510.6571421631915	756.1821776427186	0.0	516.3736209359855	781.0119724520825	0.0	499.5959447198736	783.7898974113014	0.0	509.98911280501966	775.7548278227548	0.0	526.5506843729745	427.9222432137504	0.0	530.0754307418829	363.5676782134749	0.0	529.1804828071296	398.2888986203774	0.0	567.7141568670893	455.3078595351882	0.0	579.8545546031218	531.3285799582385	0.0	591.8184379471274	592.4728428258954	0.0	480.77293261585805	446.6610638986574	0.0	463.77165124772137	517.9018304883384	0.0	465.8667329249139	569.5779557941363	0.0
651	26.055069444444445	525.6790635682701	566.0516961696723	0.0	550.5464571588224	564.6458874020283	0.0	540.7270585661217	654.975144284904	0.0	538.5030951326588	732.5250563471012	0.0	530.2675658316742	743.1919121150413	0.0	548.0498694786957	744.9586024838294	0.0	535.1273484260872	749.3332036725006	0.0	501.44036229764106	563.6247151992296	0.0	506.2810426369197	664.1200283469423	0.0	510.0320381195863	753.1012651773559	0.0	515.6169966453471	778.4721128435947	0.0	498.06381597493345	781.2522769120808	0.0	509.3585268082717	773.1192420989474	0.0	527.808884847823	427.5476376557598	0.0	531.4771097783847	363.6870783725413	0.0	530.0924849432654	397.9431530298997	0.0	568.9456612684303	454.3643453356226	0.0	580.2311058617845	529.770073813417	0.0	592.8210982786096	591.4884953324577	0.0	482.71920641344076	446.1071827751843	0.0	465.9738195293064	517.105234651393	0.0	468.9552086658886	568.4605831875298	0.0
652	26.095092592592593	527.04974467052	564.976208068311	0.0	550.9776787000112	563.6554421069105	0.0	540.0257868889079	654.9862055744843	0.0	538.2446052333854	732.965086116744	0.0	530.1156575019451	746.2198716862603	0.0	547.5931112095136	747.7293475177692	0.0	534.5633903649098	750.9066515428862	0.0	503.1250074476019	563.000425546962	0.0	506.05107684259616	660.8401340882784	0.0	508.36114662748435	746.8751957009147	0.0	515.6120137036651	777.7808040873573	0.0	496.4996245095627	778.93417534932	0.0	507.8486038373204	767.5551685528643	0.0	529.080197135591	426.7206717316587	0.0	532.670640522758	363.32300274978417	0.0	530.6647022668018	397.15142339033724	0.0	569.9342158112405	452.9243814230412	0.0	581.4949868915261	527.3632276851966	0.0	594.0212581745698	589.0770984232344	0.0	484.90346339731235	444.1810079610158	0.0	468.0797818507871	515.5038489882373	0.0	471.7803738343093	567.03663438512	0.0
653	26.13511574074074	528.6430463352386	562.8367242225443	0.0	551.6730983336178	562.335505028326	0.0	540.340208644906	655.1555942606741	0.0	537.998718483274	734.2479761942254	0.0	530.0936909843124	751.5098156327233	0.0	548.4856492395916	751.6153528679788	0.0	534.4351292163741	753.2806720144745	0.0	505.06112072889624	561.7578071327979	0.0	505.1279963141525	656.4404490070943	0.0	506.53994309878533	736.9708859302385	0.0	516.0281671354657	778.2242854840154	0.0	495.7826784892163	776.5841880708517	0.0	506.55660783417875	757.0546305248745	0.0	530.5249826900883	424.1243025131596	0.0	534.2458771378053	362.0805999744782	0.0	531.5018821964065	396.47474530248996	0.0	570.8459502277641	450.8447717566389	0.0	582.788748434692	524.4787319275755	0.0	594.7639292978155	585.1125373965313	0.0	486.83484232129774	441.4252847705764	0.0	469.7978272110239	512.3767446746928	0.0	473.6297142942528	563.9355217520475	0.0
654	26.17513888888889	530.1265948971945	560.1048708044116	0.0	552.8640329248117	560.0953081463325	0.0	541.1747559597574	654.1959825169748	0.0	537.7216677802193	735.5259947383354	0.0	529.1672634910183	755.1227512861241	0.0	548.8796015106026	754.5476738477422	0.0	535.1394891788734	754.4937670714944	0.0	506.63291448621635	559.4783970131723	0.0	504.4966348112932	651.1942637519485	0.0	505.7078024889832	724.6587851765686	0.0	515.4250283172729	775.3428023653657	0.0	495.28275386677296	771.3768366009817	0.0	506.300882096247	742.8159499578898	0.0	531.9272795633811	421.1956925410092	0.0	535.7589939219947	360.88141551259275	0.0	532.0780296996168	396.1804696138082	0.0	571.5576388237953	448.1971187419526	0.0	583.438624793296	521.1472938347843	0.0	594.9135518484229	580.65290827796	0.0	488.54793823934216	438.8772876494553	0.0	471.3721783296222	508.7679015238979	0.0	474.5570453050423	560.1569079361899	0.0
655	26.215162037037036	531.0974801520042	557.2754359952501	0.0	553.8589678370413	556.7052336344809	0.0	541.565859502257	651.7146818687304	0.0	537.7627301744116	734.5256620875239	0.0	527.7101933391275	755.0444246546019	0.0	548.3653626006732	754.8188264301717	0.0	536.5456083346049	753.2890683842932	0.0	507.3327833192562	556.1220545534381	0.0	504.7928160847761	645.8905029663267	0.0	505.8568371683423	712.3802114390685	0.0	513.3795929211352	767.6791472227515	0.0	494.24790380165086	762.6591306322279	0.0	506.85092203039466	728.8425630082997	0.0	532.8130416644062	419.45152468629414	0.0	536.1705904061355	359.8528375807927	0.0	531.8565813437407	394.85532872732875	0.0	571.964351682946	445.46813980809435	0.0	584.1737160945161	517.7701718632743	0.0	594.8492842642546	576.8538619535858	0.0	489.9688634149562	436.7509859204442	0.0	472.9622356740066	506.01481863920594	0.0	474.96419662291237	557.5285953035416	0.0
656	26.255185185185184	531.40948604725	554.2303674633501	0.0	554.3447999749889	553.2613475142049	0.0	541.0223531376079	648.6721119709925	0.0	537.9085538078905	731.6388802071664	0.0	526.649190129868	753.4967027717944	0.0	547.6973124507199	754.1046748737582	0.0	537.3658020982618	750.6106739484272	0.0	507.3666114057638	552.6094018568245	0.0	505.42256352990336	641.1790852888109	0.0	506.14328308075443	703.6927758098054	0.0	511.55474658653725	758.6194085240746	0.0	493.2740585681602	753.346997000559	0.0	507.4519477935452	719.8323713566582	0.0	533.3159914357003	418.07889134477324	0.0	535.8937761224653	358.13992079164115	0.0	532.2098815157362	391.7779591142169	0.0	572.6443624084793	443.0833150836481	0.0	585.3723439369868	514.9269038013541	0.0	594.8255238395656	573.5006770158483	0.0	490.6871622582857	434.76349735727047	0.0	474.13153165121474	504.0621176521374	0.0	474.98965025591855	556.5569694723797	0.0
657	26.295208333333335	531.3611114147687	551.0004725773085	0.0	554.8512200957102	550.9440886378045	0.0	540.0380848004284	645.8457424750166	0.0	537.9252398875681	729.5486587682524	0.0	526.5484130826037	752.271134132096	0.0	547.5367196713854	754.0475282460537	0.0	537.1538921772526	748.565959568617	0.0	507.3558566477077	549.9768597219073	0.0	505.349755436555	637.1267013752732	0.0	506.23359896583275	700.907645344145	0.0	511.2002859000522	750.7843061301456	0.0	493.17234107211664	745.9660705891647	0.0	507.60183508877543	717.9113770750365	0.0	533.9396835421741	416.0320303936316	0.0	536.1670503193197	355.8872608030354	0.0	534.0750948856389	388.4683555925812	0.0	573.8157888138486	441.164623220683	0.0	586.2288780795822	512.1828177478056	0.0	594.8121389490271	569.6108981126084	0.0	490.8992133247739	433.048539040865	0.0	474.84390090480576	501.95217971330766	0.0	474.45272990714136	556.277022227937	0.0
658	26.335231481481483	531.2229110998527	548.251705195537	0.0	555.2970577300267	549.0626527119978	0.0	539.6487463721428	643.9341648340204	0.0	537.8569200549183	728.6584485988078	0.0	526.7869664004786	750.4801469808536	0.0	548.234527548558	753.5116935140519	0.0	536.7035704906085	747.6340623359795	0.0	507.3628377293225	547.9354500165097	0.0	504.3729320200666	633.9593858925119	0.0	506.17768045007693	702.8645383526765	0.0	511.35286230369394	743.3088282235794	0.0	493.3453195648194	740.2410438658683	0.0	507.4658545061126	720.9434863794817	0.0	534.561379010359	414.0829812427437	0.0	536.9426863778043	354.03321308558196	0.0	535.4499950507916	386.69456278199556	0.0	574.4849372114655	439.6628789657417	0.0	586.4214967220247	508.86526940621354	0.0	594.453983114751	565.1299476692133	0.0	491.12670198556987	432.0085376477838	0.0	475.3466175047374	499.80540373697835	0.0	473.258241659777	556.0960754874758	0.0
